<?xml version="1.0"?>
<svg xmlns="http://www.w3.org/2000/svg" xmlns:xlink="http://www.w3.org/1999/xlink" class="" id="Layer_1" style="enable-background:new 0 0 89.758 89.758;" viewBox="0 0 89.758 89.758" x="0px" y="0px" width="512px" height="512px" xml:space="preserve" version="1.1"><g><g>
	<path class="active-path" d="M 58.255 23.88 H 31.503 c -4.27 0 -7.744 3.474 -7.744 7.744 v 26.752 c 0 4.27 3.474 7.745 7.744 7.745 h 26.752 c 4.27 0 7.745 -3.474 7.745 -7.745 V 31.624 C 66 27.354 62.526 23.88 58.255 23.88 Z M 44.879 58.906 c -7.667 0 -13.905 -6.238 -13.905 -13.906 c 0 -7.667 6.238 -13.905 13.905 -13.905 c 7.668 0 13.906 6.238 13.906 13.905 C 58.785 52.667 52.546 58.906 44.879 58.906 Z M 59.232 33.97 c -1.815 0 -3.291 -1.476 -3.291 -3.29 c 0 -1.814 1.476 -3.29 3.291 -3.29 c 1.814 0 3.29 1.476 3.29 3.29 C 62.522 32.494 61.046 33.97 59.232 33.97 Z" data-old_color="#FFF6F5" data-original="#6A453B" fill="#FFFFFF"/>
	<path class="active-path" d="M 44.879 36.971 c -4.426 0 -8.03 3.602 -8.03 8.028 c 0 4.428 3.604 8.031 8.03 8.031 c 4.428 0 8.029 -3.603 8.029 -8.031 C 52.908 40.574 49.306 36.971 44.879 36.971 Z" data-old_color="#FFF6F5" data-original="#6A453B" fill="#FFFFFF"/>
	<path class="active-path" d="M 44.879 0 C 20.094 0 0 20.094 0 44.879 c 0 24.785 20.094 44.879 44.879 44.879 c 24.785 0 44.879 -20.094 44.879 -44.879 C 89.758 20.094 69.664 0 44.879 0 Z M 71.875 58.376 c 0 7.511 -6.109 13.62 -13.62 13.62 H 31.503 c -7.51 0 -13.62 -6.109 -13.62 -13.62 V 31.624 c 0 -7.51 6.11 -13.62 13.62 -13.62 h 26.752 c 7.511 0 13.62 6.11 13.62 13.62 V 58.376 Z" data-old_color="#FFF6F5" data-original="#6A453B" fill="#FFFFFF"/>
</g></g> </svg>
