<?xml version="1.0" encoding="utf-8"?>
<!-- Generator: Adobe Illustrator 16.0.0, SVG Export Plug-In . SVG Version: 6.00 Build 0)  -->
<!DOCTYPE svg PUBLIC "-//W3C//DTD SVG 1.1//EN" "http://www.w3.org/Graphics/SVG/1.1/DTD/svg11.dtd">
<svg xmlns="http://www.w3.org/2000/svg" xmlns:xlink="http://www.w3.org/1999/xlink" version="1.1" id="Rice" x="0px" y="0px" width="512" height="512" viewBox="0 0 144.083 144" enable-background="new 0 0 144.083 144" xml:space="preserve">
<path d="M113.211,71.518c0-1.657-1.342-3-3-3h-5.967c-1.705-5.333-4.801-10.107-8.891-13.96l21.852-21.078l-4.166-4.318  L90.608,50.799c-0.283-0.187-0.57-0.367-0.859-0.547l19.77-24.87l-4.697-3.733l-20.523,25.82c-4.369-1.787-9.188-2.785-14.253-2.785  c-16.136,0-29.799,10.066-34.199,23.834h-5.967c-1.657,0-3,1.343-3,3c0,15.355,9.083,28.747,22.453,35.666H37.794v6h64.499v-6H90.76  C104.129,100.265,113.211,86.873,113.211,71.518z M70.044,50.684c12.732,0,23.589,7.436,27.802,17.834H42.243  C46.455,58.119,57.314,50.684,70.044,50.684z M33.015,74.518h74.06c-1.637,17.716-17.619,31.666-37.029,31.666  C50.634,106.184,34.651,92.233,33.015,74.518z"/>
<rect x="48.252" y="116.352" width="43.584" height="6"/>
<rect x="54.3" y="57.099" transform="matrix(-0.5464 -0.8375 0.8375 -0.5464 37.1721 140.3306)" width="4.575" height="6"/>
<rect x="66.755" y="60.478" transform="matrix(-0.9792 -0.2031 0.2031 -0.9792 125.3058 138.3935)" width="6" height="4.578"/>
<rect x="80.299" y="57.268" transform="matrix(-0.419 -0.908 0.908 -0.419 62.4698 160.508)" width="4.577" height="5.999"/>
</svg>
